# xmcd CD database file
#
# Track frame offsets:
#	150
#	15282
#	17902
#	20500
#	23102
#	24570
#	26877
#	28730
#	30545
#
# Disc length: 430 seconds
#
# Revision: 0
# Processed by: cddbd v1.4PL0 Copyright (c) Steve Scherf et al.
# Submitted via: CDex 1.50beta10
#
DISCID=6001ac09
DTITLE=John Michael Montgomery - In The Wild Wild West [CD Single)
DYEAR=1993
DGENRE=Country
TTITLE0=In The Wild Wild West
TTITLE1=In The Wild Wild West (Full Sing)
TTITLE2=In The Wild Wild West (Instrumental, for soprano and tenor)
TTITLE3=In The Wild Wild West (Instrumental, for alto and bass)
TTITLE4="My favorite Western show" (Interview)
TTITLE5="The reason The Rifleman was my favorite" (Interview)
TTITLE6="I always wanted to be a cowboy" (Interview)
TTITLE7="We feel a lot stronger about making lyrics" (Interview)
TTITLE8=" I think these Western shows will..." (Interview)
EXTD=YEAR: 1993
EXTT0=
EXTT1=
EXTT2=
EXTT3=
EXTT4=
EXTT5=
EXTT6=
EXTT7=
EXTT8=
PLAYORDER=
